<svg xmlns="http://www.w3.org/2000/svg" viewBox="0 0 64 64" role="img" aria-labelledby="title">
  <title>MeanPug head icon</title>
  <circle cx="20" cy="20" r="12" fill="#5b4334"/>
  <circle cx="44" cy="20" r="12" fill="#5b4334"/>
  <circle cx="32" cy="36" r="24" fill="#f2d3b1"/>
  <ellipse cx="32" cy="44" rx="16" ry="12" fill="#e2c49a"/>
  <path fill="#5b4334" d="M32 28c-8.8 0-16 6.9-16 15.5S23.2 59 32 59s16-6.9 16-15.5S40.8 28 32 28zm0 23.5c-4.1 0-7.5-3.5-7.5-7.9s3.4-7.9 7.5-7.9 7.5 3.5 7.5 7.9-3.4 7.9-7.5 7.9z"/>
  <ellipse cx="32" cy="43" rx="9" ry="7" fill="#e7c9a3"/>
  <path fill="#3b2a23" d="M32 39c-2.2 0-4 1.5-4 3.5s1.8 3.5 4 3.5 4-1.5 4-3.5-1.8-3.5-4-3.5z"/>
  <circle cx="24" cy="32" r="4" fill="#3b2a23"/>
  <circle cx="40" cy="32" r="4" fill="#3b2a23"/>
  <circle cx="25.2" cy="31" r="1.2" fill="#fff"/>
  <circle cx="38.8" cy="31" r="1.2" fill="#fff"/>
  <path fill="none" stroke="#3b2a23" stroke-width="2" stroke-linecap="round" d="M26 48c2.2 3 6 5 10 5s7.8-2 10-5"/>
</svg>

